<?xml version="1.0" standalone="no"?>
<!DOCTYPE svg PUBLIC "-//W3C//DTD SVG 20010904//EN"
 "http://www.w3.org/TR/2001/REC-SVG-20010904/DTD/svg10.dtd">
<svg version="1.0" xmlns="http://www.w3.org/2000/svg"
 width="768.000000px" height="768.000000px" preserveAspectRatio="xMidYMid meet">
<metadata>
Created by Aravind V Nair and Sriram Nuthi
</metadata>
<g transform="translate(10,768.000000) scale(0.100000,-0.100000)"
fill="#000000" stroke="none">
<path d="M2518 7673 c721 -2 1903 -2 2625 0 721 1 131 2 -1313 2 -1444 0
-2034 -1 -1312 -2z"/>
<path d="M5655 6688 c-22 -6 -110 -33 -195 -60 -85 -28 -195 -64 -245 -80 -49
-16 -99 -33 -110 -38 -24 -11 -218 -77 -635 -216 -173 -58 -324 -109 -335
-114 -11 -5 -38 -14 -60 -21 -22 -6 -49 -15 -60 -20 -11 -4 -87 -31 -170 -58
-348 -117 -391 -132 -407 -141 -10 -6 -27 -10 -38 -10 -11 0 -28 -4 -38 -10
-19 -10 -185 -69 -217 -77 -11 -3 -29 -9 -40 -13 -11 -5 -81 -29 -155 -54
-204 -68 -204 -68 -222 -77 -10 -5 -25 -9 -33 -9 -8 0 -23 -4 -33 -9 -18 -9
-78 -30 -102 -36 -37 -9 -215 -76 -257 -97 -92 -46 -151 -160 -139 -268 11
-96 29 -127 117 -205 19 -16 50 -36 70 -42 66 -24 177 -14 264 22 17 7 48 18
70 25 22 7 49 16 60 21 11 4 36 12 55 18 68 21 127 41 300 101 96 34 254 88
350 120 96 32 267 91 380 130 113 39 255 87 315 107 61 19 119 39 130 43 64
26 162 60 173 60 7 0 20 4 30 10 9 5 67 26 127 45 61 20 118 40 127 45 10 6
27 10 37 10 11 0 23 5 26 10 3 6 17 10 30 10 13 0 27 5 30 10 3 6 13 10 22 10
14 0 183 56 238 79 11 5 43 16 70 24 81 25 169 57 187 67 10 6 27 10 37 10 11
0 23 5 26 10 3 6 16 10 29 10 12 0 25 3 29 6 10 10 230 81 271 87 79 12 156
-42 156 -111 0 -14 4 -41 9 -61 5 -20 15 -70 21 -111 6 -41 16 -96 21 -122 6
-26 15 -73 20 -105 5 -32 14 -84 19 -115 6 -32 15 -86 20 -120 6 -35 15 -85
20 -113 5 -27 13 -75 19 -105 11 -62 36 -198 52 -280 17 -84 29 -150 38 -205
5 -27 11 -59 14 -70 5 -19 24 -133 31 -185 1 -14 6 -32 9 -40 7 -16 25 -93 34
-146 7 -47 -24 -104 -73 -131 -23 -13 -81 -37 -130 -54 -49 -17 -98 -34 -109
-39 -39 -16 -140 -50 -160 -53 -11 -2 -27 -7 -37 -11 -26 -12 -380 -133 -533
-182 -77 -25 -148 -50 -157 -55 -10 -5 -53 -21 -95 -34 -43 -14 -87 -30 -98
-35 -11 -4 -29 -11 -40 -13 -11 -3 -99 -33 -195 -66 -96 -34 -222 -77 -279
-97 -201 -68 -271 -147 -271 -303 0 -64 5 -87 24 -124 65 -122 181 -182 303
-157 32 7 67 16 78 20 11 5 31 12 45 15 32 8 130 44 152 56 10 5 27 9 37 9 11
0 23 4 26 10 3 6 17 10 30 10 13 0 26 4 29 9 3 5 29 15 58 22 29 6 75 22 103
34 27 12 70 27 95 34 25 7 54 17 65 21 35 15 199 72 220 77 11 3 29 8 40 13
11 4 34 13 50 18 62 21 181 64 200 72 11 5 38 14 60 21 22 6 49 15 60 19 11 4
40 14 65 21 25 7 50 16 55 20 6 3 75 28 155 54 80 26 153 51 163 56 9 5 39 16
65 25 26 8 61 21 77 29 17 7 47 20 67 28 168 69 354 271 387 419 1 4 8 29 16
55 28 91 18 287 -21 445 -8 32 -14 70 -14 86 0 15 -4 32 -9 38 -5 5 -11 29
-14 54 -6 53 -41 244 -64 345 -8 39 -19 93 -24 120 -17 97 -29 166 -38 223 -6
31 -15 84 -21 117 -13 74 -39 221 -50 295 -5 30 -11 64 -14 75 -2 11 -10 56
-16 100 -6 44 -16 100 -20 125 -5 25 -11 59 -14 75 -25 187 -183 382 -397 491
-113 57 -305 81 -424 52z"/>
<path d="M1045 5164 c-91 -12 -171 -28 -179 -36 -6 -4 -18 -8 -29 -8 -17 0
-124 -33 -187 -58 -14 -5 -86 -29 -160 -52 -74 -23 -151 -48 -170 -56 -19 -7
-69 -23 -110 -35 -41 -12 -79 -26 -85 -31 -5 -4 -17 -8 -27 -8 -11 0 -32 -7
-48 -15 l-30 -16 0 -277 c0 -152 3 -287 6 -299 5 -16 10 -20 23 -13 9 4 43 16
76 26 33 10 64 22 70 26 5 4 17 8 27 8 10 0 26 4 36 9 9 5 37 15 62 21 25 7
54 16 65 20 28 12 221 75 275 90 100 28 116 33 135 41 11 5 70 25 130 45 95
32 123 37 211 38 68 1 110 -4 130 -13 16 -8 44 -21 63 -30 39 -19 115 -90 156
-146 16 -22 32 -42 35 -45 4 -3 34 -43 69 -90 34 -47 74 -100 89 -119 15 -18
31 -41 36 -50 5 -9 15 -20 23 -24 7 -4 13 -15 13 -23 0 -8 5 -12 10 -9 6 3 10
0 10 -8 0 -7 8 -22 19 -33 17 -18 115 -147 201 -264 19 -26 51 -67 70 -92 34
-43 156 -202 276 -358 32 -41 101 -128 153 -194 53 -65 105 -130 116 -145 11
-14 47 -60 80 -102 33 -41 71 -91 85 -109 14 -18 46 -59 72 -89 26 -31 48 -59
48 -63 0 -4 25 -30 55 -59 30 -28 55 -56 55 -60 0 -4 12 -21 26 -36 14 -15 58
-66 97 -113 123 -148 231 -243 322 -285 22 -11 42 -22 45 -25 3 -4 14 -9 25
-13 11 -3 53 -18 94 -32 89 -32 280 -53 386 -43 39 3 97 8 130 11 67 6 170 25
200 37 11 4 45 13 75 19 30 7 64 16 75 21 22 10 192 62 292 89 34 9 66 20 69
24 4 4 18 7 31 7 13 0 31 4 41 9 9 6 44 17 77 26 33 10 71 21 85 25 14 4 43
13 65 19 22 6 72 20 110 32 96 28 162 47 210 60 22 6 48 15 57 20 10 5 27 9
38 9 11 0 28 4 38 9 9 6 44 17 77 25 33 8 74 19 90 25 17 6 77 25 135 42 121
36 173 63 218 115 49 55 63 98 64 189 0 95 -14 132 -72 193 -55 58 -119 86
-195 86 -56 -1 -79 -5 -180 -34 -22 -7 -55 -14 -73 -17 -18 -3 -35 -9 -38 -14
-3 -5 -16 -9 -28 -9 -13 0 -54 -11 -92 -25 -38 -14 -79 -25 -91 -25 -12 0 -25
-4 -28 -10 -3 -5 -19 -10 -35 -10 -16 0 -31 -4 -34 -9 -3 -5 -20 -11 -38 -14
-18 -2 -71 -17 -118 -32 -122 -39 -150 -46 -192 -52 -21 -3 -38 -9 -38 -14 0
-5 -11 -9 -25 -9 -14 0 -33 -4 -43 -10 -9 -5 -51 -19 -92 -31 -41 -11 -91 -25
-110 -31 -19 -5 -46 -12 -60 -14 -14 -3 -34 -9 -45 -14 -11 -4 -42 -14 -70
-20 -27 -7 -64 -18 -82 -26 -17 -8 -36 -14 -42 -14 -6 0 -19 -4 -29 -9 -28
-14 -87 -31 -108 -31 -11 0 -24 -4 -30 -9 -23 -22 -338 -41 -357 -22 -6 6 -21
11 -34 11 -42 0 -157 75 -192 125 -11 16 -33 44 -48 61 -15 17 -46 52 -68 78
-22 26 -53 62 -69 79 -15 18 -61 73 -102 122 -41 50 -96 117 -123 150 -71 86
-206 257 -217 276 -5 9 -27 38 -49 64 -67 80 -88 106 -170 215 -43 58 -82 107
-85 110 -3 3 -35 45 -70 94 -36 49 -80 106 -97 126 -18 21 -33 43 -33 49 0 6
-4 11 -8 11 -7 0 -72 83 -122 155 -18 26 -82 108 -90 115 -3 3 -66 86 -140
185 -74 99 -141 186 -148 194 -7 8 -21 26 -30 40 -9 14 -30 41 -47 60 -36 41
-206 191 -216 191 -4 0 -42 20 -83 45 -42 25 -87 45 -101 45 -13 0 -27 5 -30
10 -3 6 -16 10 -29 10 -12 0 -26 3 -30 7 -24 24 -262 49 -351 37z"/>
<path d="M6155 2114 c-53 -12 -104 -28 -142 -45 -24 -11 -45 -19 -49 -19 -3 0
-36 -30 -73 -67 -53 -54 -73 -83 -95 -138 -37 -92 -37 -96 -38 -195 0 -65 6
-99 23 -145 13 -33 22 -64 21 -68 -1 -5 2 -6 7 -2 6 3 13 -6 17 -19 7 -31 117
-134 165 -157 100 -47 146 -59 232 -59 42 0 78 4 81 9 3 4 19 11 36 14 86 18
189 90 246 172 51 75 68 135 72 258 l4 117 -36 77 c-21 43 -43 84 -51 93 -72
79 -139 130 -170 130 -8 0 -15 5 -15 10 0 6 -13 10 -28 10 -15 0 -32 4 -37 9
-11 11 -140 22 -170 15z"/>
<path d="M4005 1537 c-33 -12 -61 -25 -63 -29 -2 -5 -9 -8 -16 -8 -20 0 -152
-133 -168 -170 -42 -95 -58 -159 -58 -233 0 -42 5 -79 10 -82 6 -3 10 -16 10
-28 0 -13 9 -40 20 -62 11 -22 20 -44 20 -51 0 -18 115 -134 167 -167 65 -41
100 -50 221 -54 117 -5 173 9 257 62 83 54 179 178 189 245 1 8 8 28 14 44 13
29 13 206 1 206 -4 0 -9 13 -12 29 -13 61 -53 127 -120 193 -38 37 -78 68 -88
68 -11 0 -19 4 -19 10 0 5 -31 18 -69 30 -93 28 -215 26 -296 -3z"/>
</g>
</svg>
